<svg width="16" height="16" viewBox="0 0 16 16" fill="none" xmlns="http://www.w3.org/2000/svg">
<g clip-path="url(#clip0_979_3864)">
<rect width="16" height="16" rx="4" fill="#2D374B"/>
<path d="M7.98975 13.0209L5.10027 17.5139L2.43097 15.9814L6.22589 10.0555L7.98975 13.0209Z" fill="#28A0F0"/>
<path d="M0.000327587 14.179L0.00231314 12.951L4.14889 6.55249L5.68726 9.13866L1.68432 15.5525L0.23699 14.7216C0.0950365 14.6073 0.00913095 14.4397 0.00011301 14.2589L0.000327587 14.179Z" fill="#28A0F0"/>
<path d="M17.3765 15.337L15.3326 16.5038L8.53116 5.69739L9.68548 5.66721C10.669 5.65345 11.7285 5.90677 12.2148 6.69318L16.0771 12.6241L17.3765 14.602V15.337Z" fill="white"/>
<path d="M4.60577 5.69739L7.64808 5.70833L14.531 16.961L12.1252 18.3333L11.471 17.2341L4.60577 5.69739Z" fill="white"/>
</g>
<rect x="0.5" y="0.5" width="15" height="15" rx="3.5" stroke="black" stroke-opacity="0.16"/>
<defs>
<clipPath id="clip0_979_3864">
<rect width="16" height="16" rx="4" fill="white"/>
</clipPath>
</defs>
</svg>
