<svg width="16" height="16" viewBox="0 0 16 16" fill="none" xmlns="http://www.w3.org/2000/svg">
<rect width="16" height="16" rx="4" fill="#854CE6"/>
<rect x="0.5" y="0.5" width="15" height="15" rx="3.5" stroke="black" stroke-opacity="0.12"/>
<path d="M10.6217 12.5996L10.6897 12.572L11.8295 11.9092L13.0055 11.2268C13.0682 11.1926 13.1249 11.1487 13.1734 11.0966C13.2594 11.0061 13.3152 10.8919 13.3334 10.7692C13.3334 10.714 13.3334 8.00785 13.3334 7.94871C13.3117 7.81265 13.249 7.68625 13.1534 7.58578C13.0639 7.50245 12.9629 7.43205 12.8535 7.37671L10.7137 6.14199C10.6239 6.10178 10.5264 6.08098 10.4277 6.08098C10.3291 6.08098 10.2317 6.10178 10.1418 6.14199C10.1058 6.14199 9.86181 6.29583 9.32188 6.60747L8.01008 7.36885L6.71422 8.11831C6.31429 8.36291 5.94233 8.56805 5.91433 8.57591C5.82393 8.62125 5.72377 8.64418 5.62239 8.64298C5.52198 8.64318 5.42259 8.62311 5.33041 8.58385C5.28642 8.58385 4.09057 7.87771 4.02657 7.83038C3.96395 7.78338 3.90869 7.72758 3.86259 7.66471C3.81141 7.58765 3.77483 7.50211 3.75461 7.41218C3.74032 7.14938 3.74032 6.88605 3.75461 6.62325C3.72244 6.31701 3.73185 6.00791 3.78261 5.70413C3.80889 5.62995 3.84521 5.55963 3.89059 5.49505C3.93599 5.43384 3.9914 5.3805 4.05457 5.33725C4.10257 5.30569 5.25442 4.63115 5.29041 4.60353C5.38324 4.5614 5.4842 4.53959 5.58637 4.53959C5.68856 4.53959 5.78953 4.5614 5.88235 4.60353C5.92234 4.62326 7.08221 5.29781 7.17015 5.34909C7.25488 5.40579 7.32481 5.48149 7.37415 5.56999C7.40628 5.62424 7.43055 5.68267 7.44615 5.74357V5.80275V6.29584C7.44615 6.56803 7.44615 6.79285 7.44615 6.79285L7.97808 6.48913L8.50202 6.18539V5.69229C8.50202 5.14397 8.50202 5.16369 8.46601 5.05323C8.41742 4.92046 8.33141 4.80415 8.21808 4.71793C8.17808 4.69032 6.00232 3.42799 5.89833 3.37276L5.81435 3.33331H5.77836H5.37841L5.31841 3.35698C5.27442 3.3767 4.96646 3.55028 4.11857 4.03943C3.49065 4.40235 2.96271 4.71004 2.94271 4.72582C2.87054 4.77541 2.809 4.83857 2.76164 4.91168C2.71429 4.98479 2.68204 5.06641 2.66675 5.15185C2.66675 5.20707 2.66675 5.25047 2.66675 6.59959C2.66675 7.94871 2.66675 7.99605 2.66675 8.04731C2.68213 8.13491 2.71621 8.21825 2.76673 8.29191C2.81882 8.36558 2.88225 8.43078 2.95471 8.48518C3.00671 8.51671 5.22643 9.80671 5.28242 9.83431C5.37816 9.87865 5.48261 9.90158 5.58838 9.90158C5.69414 9.90158 5.79861 9.87865 5.89435 9.83431L6.69421 9.36485C7.34615 8.97038 7.55008 8.86391 7.98608 8.62325C8.42202 8.38265 8.54202 8.31558 9.28188 7.86978L10.0818 7.38458C10.2495 7.30871 10.4407 7.30165 10.6137 7.36491C10.6417 7.37185 10.6686 7.38245 10.6937 7.39645C10.7417 7.42011 11.9455 8.14591 11.9815 8.18538C12.1182 8.29225 12.2095 8.44558 12.2375 8.61538C12.2375 8.68631 12.2375 10.1578 12.2375 10.2288C12.2091 10.4034 12.1131 10.5604 11.9695 10.6666C11.9295 10.6942 10.7697 11.3806 10.6777 11.4201C10.5865 11.4602 10.4877 11.481 10.3877 11.481C10.2879 11.481 10.189 11.4602 10.0978 11.4201C10.0658 11.4201 9.83382 11.2702 9.43788 11.0256L8.79401 10.6312C8.67915 10.5446 8.59295 10.4266 8.54601 10.2919C8.51402 10.1932 8.51402 10.2209 8.51002 9.66865V9.16371L7.98608 9.46745L7.46215 9.77118V10.28C7.46215 10.8323 7.46215 10.8284 7.49015 10.923C7.51288 10.9923 7.54662 11.0576 7.59008 11.1164C7.63515 11.1765 7.68908 11.2297 7.75008 11.2742C7.78608 11.3018 9.99782 12.5956 10.0498 12.6232C10.1018 12.6509 10.1298 12.6666 10.3498 12.6666H10.5458L10.6217 12.5996Z" fill="white"/>
</svg>
