<svg width="16" height="16" viewBox="0 0 16 16" fill="none" xmlns="http://www.w3.org/2000/svg">
<rect width="16" height="16" rx="4" fill="black"/>
<g clip-path="url(#clip0_660_6852)">
<path d="M4.40266 10.2027C4.46705 10.1383 4.55558 10.1007 4.64949 10.1007H13.1651C13.3207 10.1007 13.3985 10.2885 13.2885 10.3985L11.6063 12.0807C11.5419 12.1451 11.4534 12.1827 11.3595 12.1827H2.84388C2.68827 12.1827 2.61046 11.9949 2.72046 11.8849L4.40266 10.2027Z" fill="url(#paint0_linear_660_6852)"/>
<path d="M4.40266 3.92196C4.46973 3.85757 4.55827 3.82001 4.64949 3.82001H13.1651C13.3207 3.82001 13.3985 4.00781 13.2885 4.11781L11.6063 5.80001C11.5419 5.8644 11.4534 5.90196 11.3595 5.90196H2.84388C2.68827 5.90196 2.61046 5.71415 2.72046 5.60415L4.40266 3.92196Z" fill="url(#paint1_linear_660_6852)"/>
<path d="M11.6063 7.0422C11.5419 6.97781 11.4534 6.94025 11.3595 6.94025H2.84388C2.68827 6.94025 2.61046 7.12805 2.72046 7.23805L4.40266 8.92025C4.46705 8.98464 4.55558 9.0222 4.64949 9.0222H13.1651C13.3207 9.0222 13.3985 8.83439 13.2885 8.72439L11.6063 7.0422Z" fill="url(#paint2_linear_660_6852)"/>
</g>
<rect x="0.5" y="0.5" width="15" height="15" rx="3.5" stroke="white" stroke-opacity="0.24"/>
<defs>
<linearGradient id="paint0_linear_660_6852" x1="12.3516" y1="2.81511" x2="6.45813" y2="14.1035" gradientUnits="userSpaceOnUse">
<stop stop-color="#00FFA3"/>
<stop offset="1" stop-color="#DC1FFF"/>
</linearGradient>
<linearGradient id="paint1_linear_660_6852" x1="9.77466" y1="1.46973" x2="3.88118" y2="12.7581" gradientUnits="userSpaceOnUse">
<stop stop-color="#00FFA3"/>
<stop offset="1" stop-color="#DC1FFF"/>
</linearGradient>
<linearGradient id="paint2_linear_660_6852" x1="11.0549" y1="2.13813" x2="5.16145" y2="13.4265" gradientUnits="userSpaceOnUse">
<stop stop-color="#00FFA3"/>
<stop offset="1" stop-color="#DC1FFF"/>
</linearGradient>
<clipPath id="clip0_660_6852">
<rect width="10.67" height="8.36268" fill="white" transform="translate(2.66992 3.82001)"/>
</clipPath>
</defs>
</svg>
